<?xml version="1.0" standalone="no"?>
<!DOCTYPE svg PUBLIC "-//W3C//DTD SVG 20010904//EN"
 "http://www.w3.org/TR/2001/REC-SVG-20010904/DTD/svg10.dtd">
<svg version="1.0" xmlns="http://www.w3.org/2000/svg"
 width="1366.000000pt" height="768.000000pt" viewBox="0 0 1366.000000 768.000000"
 preserveAspectRatio="xMidYMid meet">

<g transform="translate(0.000000,768.000000) scale(0.100000,-0.100000)"
fill="#000000" stroke="none">
<path d="M11888 5942 c-15 -9 -38 -37 -51 -62 -13 -25 -66 -117 -117 -205 -51
-88 -106 -185 -123 -215 -16 -30 -38 -66 -47 -80 -21 -30 -121 -205 -174 -303
-21 -40 -51 -91 -67 -115 -16 -24 -29 -45 -29 -48 0 -2 -11 -21 -24 -42 -13
-21 -27 -56 -30 -79 -4 -23 -16 -49 -27 -59 -10 -9 -19 -26 -19 -36 0 -11 -8
-22 -18 -25 -10 -2 -28 -26 -40 -51 -27 -57 -46 -90 -61 -105 -6 -6 -11 -17
-11 -24 0 -15 -13 -33 -47 -65 -17 -16 -23 -33 -23 -64 0 -55 15 -87 51 -108
34 -20 97 -13 106 13 4 9 19 32 35 52 15 20 28 44 28 52 0 8 7 20 15 27 8 7
15 21 15 32 0 10 7 21 15 24 8 4 15 14 15 23 1 9 14 32 30 51 17 19 30 42 30
51 0 9 7 22 15 29 8 7 15 20 15 29 0 10 11 28 24 40 13 12 36 49 50 81 15 33
31 62 36 65 5 3 26 37 47 75 21 38 46 71 55 74 10 2 18 13 18 25 0 11 25 61
55 111 30 50 55 93 55 95 0 3 22 40 48 83 27 42 61 102 76 132 15 30 39 73 52
95 133 214 184 313 184 356 0 10 -14 34 -31 54 -25 29 -38 35 -68 34 -20 0
-48 -8 -63 -17z"/>
<path d="M12457 5907 c-15 -29 -27 -61 -27 -72 1 -20 1 -20 16 0 26 33 64 112
57 119 -13 12 -20 5 -46 -47z"/>
<path d="M9518 5904 c-23 -20 -43 -39 -43 -43 1 -27 40 -125 65 -164 17 -27
81 -137 143 -245 136 -240 155 -263 219 -265 39 -2 52 3 78 28 17 16 34 43 39
60 11 40 -10 110 -43 144 -14 15 -26 34 -26 42 0 8 -9 20 -20 27 -11 7 -20 19
-20 27 0 8 -4 23 -10 33 -5 9 -19 37 -30 62 -11 25 -38 72 -60 105 -21 33 -51
84 -67 114 -44 85 -75 111 -133 111 -41 0 -55 -6 -92 -36z"/>
<path d="M12365 5753 c-14 -21 -25 -48 -25 -60 0 -12 -4 -25 -10 -28 -16 -10
-12 -25 5 -19 8 3 24 26 35 50 12 24 26 46 31 50 12 7 12 44 -1 44 -5 0 -21
-17 -35 -37z"/>
<path d="M12266 5575 c-9 -13 -16 -27 -16 -30 0 -4 -11 -21 -24 -38 -14 -18
-30 -43 -35 -57 -18 -41 -59 -111 -86 -146 -13 -18 -32 -53 -41 -79 -30 -89 1
-62 68 60 25 44 54 96 66 115 50 84 102 180 102 190 0 18 -17 11 -34 -15z"/>
<path d="M12018 5143 c-32 -37 -65 -99 -72 -135 -4 -21 -5 -38 -3 -38 9 0 107
170 107 185 0 11 -17 4 -32 -12z"/>
<path d="M10585 4123 c-33 -8 -55 -34 -55 -64 0 -16 -7 -34 -16 -41 -43 -35
-64 -64 -114 -164 -30 -60 -80 -153 -112 -206 -32 -54 -58 -100 -58 -102 0 -3
-19 -36 -42 -73 -22 -38 -62 -106 -88 -153 -26 -47 -78 -138 -116 -203 -38
-65 -86 -151 -108 -190 -21 -40 -51 -91 -67 -114 -16 -24 -51 -84 -79 -135
-29 -51 -67 -120 -87 -153 -19 -33 -46 -80 -60 -105 -13 -25 -28 -52 -33 -60
-22 -35 -130 -222 -130 -225 0 -2 -27 -49 -60 -104 -49 -83 -60 -109 -60 -145
0 -37 5 -48 30 -70 43 -36 91 -43 132 -19 46 27 117 131 111 163 -7 41 12 104
53 176 22 37 54 94 72 128 19 34 45 78 58 99 27 40 49 80 89 155 14 26 34 61
45 77 10 17 29 50 42 75 12 25 34 63 49 85 22 34 52 86 113 199 6 12 24 40 39
63 15 24 27 45 27 48 0 2 27 50 60 105 33 55 60 103 60 105 0 3 27 50 60 104
33 55 60 102 60 105 0 3 25 46 55 96 30 50 64 109 76 132 27 54 113 144 144
152 13 3 26 15 30 26 3 11 16 27 28 37 18 15 22 28 22 78 0 86 -18 78 -84 -36
-78 -135 -84 -141 -117 -137 -45 5 -44 48 2 123 52 84 94 159 94 168 0 8 -33
8 -65 0z"/>
<path d="M1740 3096 l0 -576 397 0 396 0 -6 278 c-4 152 -7 370 -7 485 l0 207
-28 0 c-15 0 -38 8 -52 17 -17 12 -25 13 -28 5 -5 -17 -22 -15 -22 3 0 8 -4
15 -10 15 -5 0 -7 -7 -4 -15 4 -8 2 -15 -4 -15 -6 0 -12 5 -14 10 -2 6 -18 13
-37 15 -18 2 -38 9 -45 14 -6 5 -29 12 -51 15 -22 2 -47 7 -55 9 -50 16 -60
20 -60 27 0 4 -13 6 -30 4 -16 -2 -30 0 -30 5 0 11 -33 9 -41 -3 -11 -14 -29
3 -23 22 5 14 4 14 -4 3 -8 -12 -13 -12 -25 -2 -9 6 -32 13 -52 14 -20 2 -41
9 -46 17 -8 11 -12 12 -16 3 -6 -15 -30 -17 -35 -3 -1 5 -18 12 -35 16 l-33 7
0 -577z"/>
<path d="M3307 3263 c3 -16 8 -37 12 -48 4 -11 16 -45 25 -75 37 -117 144
-293 222 -365 12 -11 39 -36 60 -55 52 -47 167 -123 229 -149 28 -12 59 -26
70 -31 121 -53 387 -83 508 -57 l39 8 -4 252 c-2 188 -6 257 -16 272 -8 11
-11 13 -9 4 4 -12 -1 -14 -24 -11 -16 2 -29 7 -29 11 0 3 -21 7 -46 9 -26 2
-53 9 -61 17 -8 8 -30 15 -48 15 -19 0 -37 5 -41 11 -3 6 -22 9 -40 7 -19 -2
-34 0 -34 4 0 4 -9 8 -20 8 -11 0 -20 4 -20 9 0 13 -53 21 -64 10 -6 -5 -15
-9 -20 -9 -6 0 -4 5 4 10 13 8 12 10 -2 10 -10 0 -18 5 -18 10 0 6 -25 10 -55
10 -46 0 -55 3 -55 18 0 14 -2 15 -10 2 -8 -12 -11 -13 -19 -1 -7 11 -9 11
-14 0 -5 -12 -7 -12 -15 0 -6 7 -33 16 -61 19 -28 2 -51 8 -51 12 0 4 -22 10
-49 14 -27 4 -51 11 -53 17 -2 6 -25 12 -51 13 -28 1 -51 7 -56 15 -7 10 -10
10 -16 1 -5 -9 -9 -9 -14 -1 -4 6 -29 12 -57 14 -27 2 -59 9 -71 15 -30 16
-31 16 -26 -15z"/>
<path d="M4610 2843 c0 -71 -3 -172 -7 -225 l-6 -98 364 0 364 0 -3 140 -3
140 -45 0 c-24 0 -44 4 -44 10 0 5 -7 7 -15 4 -8 -4 -15 -2 -15 4 0 5 -19 10
-42 10 -24 1 -44 6 -46 11 -2 6 -8 8 -14 5 -6 -4 -19 4 -29 17 -10 13 -19 18
-19 12 0 -16 -46 -17 -56 -2 -3 6 -15 8 -26 6 -20 -6 -56 9 -70 28 -5 6 -12 4
-18 -5 -9 -13 -12 -13 -20 2 -6 9 -17 15 -24 12 -7 -3 -21 2 -30 11 -9 9 -16
12 -16 6 0 -14 -27 -15 -32 -1 -1 5 -25 12 -53 14 -27 3 -51 10 -53 16 -2 5
-12 10 -23 10 -18 0 -19 -9 -19 -127z"/>
<path d="M10966 2912 c-3 -5 -8 -26 -11 -48 -5 -31 0 -50 23 -94 39 -75 75
-138 100 -180 12 -19 40 -69 62 -110 22 -41 50 -91 62 -110 12 -19 40 -67 62
-107 181 -318 239 -414 264 -434 62 -49 167 -27 202 42 11 21 20 47 20 57 0
10 11 22 25 28 l25 9 -30 45 c-17 25 -45 72 -62 105 -17 33 -38 71 -48 85 -10
14 -38 61 -62 105 -24 44 -79 139 -121 211 -42 73 -79 143 -82 157 -4 16 -16
28 -32 32 -36 9 -38 1 -14 -45 11 -22 21 -56 21 -76 0 -63 -73 -105 -129 -74
-19 9 -58 66 -103 150 -29 53 -116 206 -135 238 -14 23 -28 28 -37 14z"/>
<path d="M5596 2724 c-3 -9 -6 -72 -6 -140 l0 -124 98 1 c159 1 385 29 406 50
6 5 18 9 29 9 30 0 107 39 107 55 0 10 -11 15 -37 16 -84 2 -126 8 -133 20 -5
7 -25 13 -45 13 -20 1 -40 8 -46 16 -8 13 -10 13 -19 0 -8 -12 -12 -13 -19 -2
-4 8 -10 13 -12 12 -2 -2 -29 1 -59 5 -36 5 -61 15 -72 28 -10 11 -18 15 -18
9 0 -15 -71 -7 -80 8 -4 6 -25 11 -48 12 -30 0 -39 4 -35 14 3 8 3 14 0 14 -3
0 -8 -7 -11 -16z"/>
<path d="M5720 2700 c0 -5 5 -10 10 -10 6 0 10 5 10 10 0 6 -4 10 -10 10 -5 0
-10 -4 -10 -10z"/>
</g>
</svg>
